<?xml version="1.0" encoding="utf-8"?>
<!-- Generator: Adobe Illustrator 27.2.0, SVG Export Plug-In . SVG Version: 6.00 Build 0)  -->
<svg version="1.1" id="Layer_1" xmlns="http://www.w3.org/2000/svg" xmlns:xlink="http://www.w3.org/1999/xlink" x="0px" y="0px"
	 viewBox="0 0 302 302" style="enable-background:new 0 0 302 302;" xml:space="preserve">
<style type="text/css">
	.st0{clip-path:url(#SVGID_00000065765077381894612910000009434690718393273770_);}
	.st1{clip-path:url(#SVGID_00000116934558062690736460000012269177750786438839_);}
	.st2{clip-path:url(#SVGID_00000057832449498492738090000008798619174325215127_);}
	.st3{clip-path:url(#SVGID_00000031184652793480763680000009900118383615360677_);}
	.st4{clip-path:url(#SVGID_00000036243793433059627300000012452241735455442097_);}
	.st5{clip-path:url(#SVGID_00000090973142874486107320000006561075807241367704_);}
	.st6{clip-path:url(#SVGID_00000165195499232883773180000013247389319253420470_);}
	.st7{clip-path:url(#SVGID_00000127728900815370531280000000862127822118148540_);}
	.st8{clip-path:url(#SVGID_00000094612783353531598550000011966782741594016148_);}
	.st9{clip-path:url(#SVGID_00000183233386051620139280000006411135476049975228_);}
	.st10{clip-path:url(#SVGID_00000073697580606705813890000003292937171528411298_);}
	.st11{clip-path:url(#SVGID_00000036959050000673602370000002673946778614115491_);}
	.st12{clip-path:url(#SVGID_00000175297257421885599900000003404132667223159946_);}
	.st13{clip-path:url(#SVGID_00000137855144054725401620000014659547554041624204_);}
	.st14{clip-path:url(#SVGID_00000177463802976280263630000002362619110349960104_);}
	.st15{clip-path:url(#SVGID_00000150083737116872351880000002221805273377536146_);}
	.st16{clip-path:url(#SVGID_00000137107021079198106160000016014012604326751636_);}
	.st17{clip-path:url(#SVGID_00000181070817555747628650000006267778453057554607_);}
	.st18{clip-path:url(#SVGID_00000044167879769350090420000018090130126677650308_);}
	.st19{clip-path:url(#SVGID_00000083058810397954606470000012677925207744564640_);}
	.st20{clip-path:url(#SVGID_00000084508355026413370530000013782272630316790400_);}
	.st21{clip-path:url(#SVGID_00000129205336309301970220000011497632423488453040_);}
	.st22{clip-path:url(#SVGID_00000119106397173768064880000012238297024815435664_);}
	.st23{clip-path:url(#SVGID_00000049900200634620115560000003318131154825482646_);}
	.st24{clip-path:url(#SVGID_00000099652151892359958440000011181095770062878605_);}
	.st25{clip-path:url(#SVGID_00000158728435331830013360000001395806238362518405_);}
	.st26{clip-path:url(#SVGID_00000090259386355511655920000006201336276479080379_);}
	.st27{clip-path:url(#SVGID_00000151542265635033583550000014187552569955124144_);}
	.st28{clip-path:url(#SVGID_00000149342647426134048950000012533870243356347581_);}
	.st29{clip-path:url(#SVGID_00000084524940422047988640000003155843391106397884_);}
	.st30{clip-path:url(#SVGID_00000152979731235726510870000018340919806987744677_);}
	.st31{clip-path:url(#SVGID_00000100352414650340198720000008138437614562073248_);}
	.st32{clip-path:url(#SVGID_00000067207183191782732000000016217159813804354456_);}
	.st33{clip-path:url(#SVGID_00000162330857170417388240000009920677738507435933_);}
	.st34{clip-path:url(#SVGID_00000067930025973206031380000004647542096152940213_);}
	.st35{clip-path:url(#SVGID_00000090278919851075881490000002404614863504673963_);}
	.st36{clip-path:url(#SVGID_00000006705945661243147810000004556092660275463871_);}
	.st37{clip-path:url(#SVGID_00000151502366597685522790000011314350959723055250_);}
	.st38{clip-path:url(#SVGID_00000036249638209825769940000008251129180591047304_);}
	.st39{clip-path:url(#SVGID_00000137100566850632635980000008518970264181658017_);}
	.st40{clip-path:url(#SVGID_00000024690202451327362590000015146188476557446051_);}
	.st41{clip-path:url(#SVGID_00000151513966750329914670000001053036005231238802_);}
	.st42{clip-path:url(#SVGID_00000134939161183771077160000002949340697772448650_);}
	.st43{clip-path:url(#SVGID_00000119104020995615741610000003631843928099546029_);}
	.st44{clip-path:url(#SVGID_00000093135176565803950940000005082141926773110197_);}
	.st45{clip-path:url(#SVGID_00000169560038909398624250000018117996091291409307_);}
	.st46{clip-path:url(#SVGID_00000028307771897953407420000011358636913549118881_);}
	.st47{clip-path:url(#SVGID_00000023981472251348061000000006693936443961435047_);}
	.st48{clip-path:url(#SVGID_00000097481906352390478380000016242259552743285652_);}
	.st49{clip-path:url(#SVGID_00000054949705853741978030000008352325038180234643_);fill:#E3333C;}
	.st50{enable-background:new    ;}
	.st51{fill:#E3333C;}
</style>
<g>
	<g>
		<defs>
			<rect id="SVGID_1_" x="1" y="-0.5" width="300" height="301.1"/>
		</defs>
		<clipPath id="SVGID_00000114052604828613597890000015881949095185674124_">
			<use xlink:href="#SVGID_1_"  style="overflow:visible;"/>
		</clipPath>
		<g style="clip-path:url(#SVGID_00000114052604828613597890000015881949095185674124_);">
			<text transform="matrix(1 0 0 1 -183.105 -145.419)" style="font-family:'ArialMT'; font-size:21.17px;">L</text>
		</g>
	</g>
</g>
<g>
	<g>
		<defs>
			<rect id="SVGID_00000175284823805956048440000018255063850603947683_" x="1" y="-0.5" width="300" height="301.1"/>
		</defs>
		<clipPath id="SVGID_00000142873242607416925300000003200954192818552499_">
			<use xlink:href="#SVGID_00000175284823805956048440000018255063850603947683_"  style="overflow:visible;"/>
		</clipPath>
		<g style="clip-path:url(#SVGID_00000142873242607416925300000003200954192818552499_);">
			<text transform="matrix(1 0 0 1 -171.97 -145.419)" style="font-family:'ArialMT'; font-size:21.17px;">ogo</text>
		</g>
	</g>
</g>
<g>
	<g>
		<defs>
			<rect id="SVGID_00000078748729417588926960000001130606369048150158_" x="1" y="-0.5" width="300" height="301.1"/>
		</defs>
		<clipPath id="SVGID_00000000912870620866508400000006748564595765067395_">
			<use xlink:href="#SVGID_00000078748729417588926960000001130606369048150158_"  style="overflow:visible;"/>
		</clipPath>
		<g style="clip-path:url(#SVGID_00000000912870620866508400000006748564595765067395_);">
			<text transform="matrix(1 0 0 1 566.658 -151.066)" style="font-family:'ArialMT'; font-size:14.114px;">Alk</text>
		</g>
	</g>
</g>
<g>
	<g>
		<defs>
			<rect id="SVGID_00000068671363574857204140000010494058578052461954_" x="1" y="-0.5" width="300" height="301.1"/>
		</defs>
		<clipPath id="SVGID_00000078043378810000364720000009871905413944937637_">
			<use xlink:href="#SVGID_00000068671363574857204140000010494058578052461954_"  style="overflow:visible;"/>
		</clipPath>
		<g style="clip-path:url(#SVGID_00000078043378810000364720000009871905413944937637_);">
			<text transform="matrix(1 0 0 1 586.206 -151.066)" style="font-family:'ArialMT'; font-size:14.114px;">o-</text>
		</g>
	</g>
</g>
<g>
	<g>
		<defs>
			<rect id="SVGID_00000082328528566418144830000007897657199109956773_" x="1" y="-0.5" width="300" height="301.1"/>
		</defs>
		<clipPath id="SVGID_00000078029112503002140830000007254329769843989386_">
			<use xlink:href="#SVGID_00000082328528566418144830000007897657199109956773_"  style="overflow:visible;"/>
		</clipPath>
		<g style="clip-path:url(#SVGID_00000078029112503002140830000007254329769843989386_);">
			<text transform="matrix(1 0 0 1 599.288 -151.066)" style="font-family:'ArialMT'; font-size:14.114px;">logon perusmuoto ja</text>
		</g>
	</g>
</g>
<g>
	<g>
		<defs>
			<rect id="SVGID_00000015354112564484842700000000456663412823416710_" x="1" y="-0.5" width="300" height="301.1"/>
		</defs>
		<clipPath id="SVGID_00000048501526399567690650000000734982686398701720_">
			<use xlink:href="#SVGID_00000015354112564484842700000000456663412823416710_"  style="overflow:visible;"/>
		</clipPath>
		<g style="clip-path:url(#SVGID_00000048501526399567690650000000734982686398701720_);">
			<text transform="matrix(1 0 0 1 566.658 -131.067)" style="font-family:'ArialMT'; font-size:14.114px;">väri juontuvat Alk</text>
		</g>
	</g>
</g>
<g>
	<g>
		<defs>
			<rect id="SVGID_00000153669460441014353310000016227912041483578028_" x="1" y="-0.5" width="300" height="301.1"/>
		</defs>
		<clipPath id="SVGID_00000103230762849312046690000011808805632631568529_">
			<use xlink:href="#SVGID_00000153669460441014353310000016227912041483578028_"  style="overflow:visible;"/>
		</clipPath>
		<g style="clip-path:url(#SVGID_00000103230762849312046690000011808805632631568529_);">
			<text transform="matrix(1 0 0 1 671.196 -131.067)" style="font-family:'ArialMT'; font-size:14.114px;">on</text>
		</g>
	</g>
</g>
<g>
	<g>
		<defs>
			<rect id="SVGID_00000061444464585190481310000001766059465589637250_" x="1" y="-0.5" width="300" height="301.1"/>
		</defs>
		<clipPath id="SVGID_00000086693621899305707420000005160029748225244863_">
			<use xlink:href="#SVGID_00000061444464585190481310000001766059465589637250_"  style="overflow:visible;"/>
		</clipPath>
		<g style="clip-path:url(#SVGID_00000086693621899305707420000005160029748225244863_);">
			<text transform="matrix(1 0 0 1 566.658 -111.069)" style="font-family:'ArialMT'; font-size:14.114px;">visuaalisesta historiasta.</text>
		</g>
	</g>
</g>
<g>
	<g>
		<defs>
			<rect id="SVGID_00000158021906897518230610000018323594059924349627_" x="1" y="-0.5" width="300" height="301.1"/>
		</defs>
		<clipPath id="SVGID_00000091704097794346326240000012000852625602470079_">
			<use xlink:href="#SVGID_00000158021906897518230610000018323594059924349627_"  style="overflow:visible;"/>
		</clipPath>
		<g style="clip-path:url(#SVGID_00000091704097794346326240000012000852625602470079_);">
			<text transform="matrix(1 0 0 1 566.658 -91.069)" style="font-family:'ArialMT'; font-size:14.114px;">Muoto ja väri o</text>
		</g>
	</g>
</g>
<g>
	<g>
		<defs>
			<rect id="SVGID_00000048503699876706492910000004198387880796639650_" x="1" y="-0.5" width="300" height="301.1"/>
		</defs>
		<clipPath id="SVGID_00000178924157809684462350000009779240729870877858_">
			<use xlink:href="#SVGID_00000048503699876706492910000004198387880796639650_"  style="overflow:visible;"/>
		</clipPath>
		<g style="clip-path:url(#SVGID_00000178924157809684462350000009779240729870877858_);">
			<text transform="matrix(1 0 0 1 654.812 -91.069)" style="font-family:'ArialMT'; font-size:14.114px;">vat</text>
		</g>
	</g>
</g>
<g>
	<g>
		<defs>
			<rect id="SVGID_00000093148362167519440400000000121352482705251754_" x="1" y="-0.5" width="300" height="301.1"/>
		</defs>
		<clipPath id="SVGID_00000181084960918414326370000016431086971330425767_">
			<use xlink:href="#SVGID_00000093148362167519440400000000121352482705251754_"  style="overflow:visible;"/>
		</clipPath>
		<g style="clip-path:url(#SVGID_00000181084960918414326370000016431086971330425767_);">
			<text transform="matrix(1 0 0 1 566.658 -71.071)" style="font-family:'ArialMT'; font-size:14.114px;">jalostuneet vastaamaan</text>
		</g>
	</g>
</g>
<g>
	<g>
		<defs>
			<rect id="SVGID_00000096040434083312034120000008667488129264667532_" x="1" y="-0.5" width="300" height="301.1"/>
		</defs>
		<clipPath id="SVGID_00000053515692104723410500000002315736835083995061_">
			<use xlink:href="#SVGID_00000096040434083312034120000008667488129264667532_"  style="overflow:visible;"/>
		</clipPath>
		<g style="clip-path:url(#SVGID_00000053515692104723410500000002315736835083995061_);">
			<text transform="matrix(1 0 0 1 566.658 -51.07)" style="font-family:'ArialMT'; font-size:14.114px;">tämän ajan esteettisiä</text>
		</g>
	</g>
</g>
<g>
	<g>
		<defs>
			<rect id="SVGID_00000037663746095088979660000000734359994731319992_" x="1" y="-0.5" width="300" height="301.1"/>
		</defs>
		<clipPath id="SVGID_00000145024308259883750830000010979624414586292111_">
			<use xlink:href="#SVGID_00000037663746095088979660000000734359994731319992_"  style="overflow:visible;"/>
		</clipPath>
		<g style="clip-path:url(#SVGID_00000145024308259883750830000010979624414586292111_);">
			<text transform="matrix(1 0 0 1 566.658 -31.074)" style="font-family:'ArialMT'; font-size:14.114px;">vaatimuksia.</text>
		</g>
	</g>
</g>
<g>
	<g>
		<defs>
			<rect id="SVGID_00000176748760034607832790000001311391191650396033_" x="1" y="-0.5" width="300" height="301.1"/>
		</defs>
		<clipPath id="SVGID_00000148650875801806980140000003384366425967542687_">
			<use xlink:href="#SVGID_00000176748760034607832790000001311391191650396033_"  style="overflow:visible;"/>
		</clipPath>
		<g style="clip-path:url(#SVGID_00000148650875801806980140000003384366425967542687_);">
			<text transform="matrix(1 0 0 1 566.658 8.913)" style="font-family:'ArialMT'; font-size:14.114px;">T</text>
		</g>
	</g>
</g>
<g>
	<g>
		<defs>
			<rect id="SVGID_00000079458766829638518040000010200889920228049045_" x="1" y="-0.5" width="300" height="301.1"/>
		</defs>
		<clipPath id="SVGID_00000150092977114847595470000001200233648619928997_">
			<use xlink:href="#SVGID_00000079458766829638518040000010200889920228049045_"  style="overflow:visible;"/>
		</clipPath>
		<g style="clip-path:url(#SVGID_00000150092977114847595470000001200233648619928997_);">
			<text transform="matrix(1 0 0 1 573.122 8.913)" style="font-family:'ArialMT'; font-size:14.114px;">ule</text>
		</g>
	</g>
</g>
<g>
	<g>
		<defs>
			<rect id="SVGID_00000039121918145283175410000002650301088488650373_" x="1" y="-0.5" width="300" height="301.1"/>
		</defs>
		<clipPath id="SVGID_00000010293374555081780060000012898873223432413076_">
			<use xlink:href="#SVGID_00000039121918145283175410000002650301088488650373_"  style="overflow:visible;"/>
		</clipPath>
		<g style="clip-path:url(#SVGID_00000010293374555081780060000012898873223432413076_);">
			<text transform="matrix(1 0 0 1 592.472 8.913)" style="font-family:'ArialMT'; font-size:14.114px;">villa sivuilta löy</text>
		</g>
	</g>
</g>
<g>
	<g>
		<defs>
			<rect id="SVGID_00000009564096873006870810000004740206394048340904_" x="1" y="-0.5" width="300" height="301.1"/>
		</defs>
		<clipPath id="SVGID_00000087386297553365189180000008424661548974308523_">
			<use xlink:href="#SVGID_00000009564096873006870810000004740206394048340904_"  style="overflow:visible;"/>
		</clipPath>
		<g style="clip-path:url(#SVGID_00000087386297553365189180000008424661548974308523_);">
			<text transform="matrix(1 0 0 1 684.762 8.913)" style="font-family:'ArialMT'; font-size:14.114px;">dät</text>
		</g>
	</g>
</g>
<g>
	<g>
		<defs>
			<rect id="SVGID_00000172408840046564240590000015011124445888556948_" x="1" y="-0.5" width="300" height="301.1"/>
		</defs>
		<clipPath id="SVGID_00000106844285249123625110000014999141143537192855_">
			<use xlink:href="#SVGID_00000172408840046564240590000015011124445888556948_"  style="overflow:visible;"/>
		</clipPath>
		<g style="clip-path:url(#SVGID_00000106844285249123625110000014999141143537192855_);">
			<text transform="matrix(1 0 0 1 566.644 28.911)" style="font-family:'ArialMT'; font-size:14.114px;">ohjeet</text>
		</g>
	</g>
</g>
<g>
	<g>
		<defs>
			<rect id="SVGID_00000157310350669505694460000012651807030297309353_" x="1" y="-0.5" width="300" height="301.1"/>
		</defs>
		<clipPath id="SVGID_00000049907416937488800020000017376744791898472837_">
			<use xlink:href="#SVGID_00000157310350669505694460000012651807030297309353_"  style="overflow:visible;"/>
		</clipPath>
		<g style="clip-path:url(#SVGID_00000049907416937488800020000017376744791898472837_);">
			<text transform="matrix(1 0 0 1 606.839 28.911)" style="font-family:'ArialMT'; font-size:14.114px;">Alk</text>
		</g>
	</g>
</g>
<g>
	<g>
		<defs>
			<rect id="SVGID_00000000198669535856183210000002387121856271626684_" x="1" y="-0.5" width="300" height="301.1"/>
		</defs>
		<clipPath id="SVGID_00000069387568903757164730000018324954511956050560_">
			<use xlink:href="#SVGID_00000000198669535856183210000002387121856271626684_"  style="overflow:visible;"/>
		</clipPath>
		<g style="clip-path:url(#SVGID_00000069387568903757164730000018324954511956050560_);">
			<text transform="matrix(1 0 0 1 625.683 28.911)" style="font-family:'ArialMT'; font-size:14.114px;">o-</text>
		</g>
	</g>
</g>
<g>
	<g>
		<defs>
			<rect id="SVGID_00000085939489158512809710000004977950216950825355_" x="1" y="-0.5" width="300" height="301.1"/>
		</defs>
		<clipPath id="SVGID_00000063608172412136037320000002757790828739067522_">
			<use xlink:href="#SVGID_00000085939489158512809710000004977950216950825355_"  style="overflow:visible;"/>
		</clipPath>
		<g style="clip-path:url(#SVGID_00000063608172412136037320000002757790828739067522_);">
			<text transform="matrix(1 0 0 1 638.3 28.911)" style="font-family:'ArialMT'; font-size:14.114px;">l</text>
		</g>
	</g>
</g>
<g>
	<g>
		<defs>
			<rect id="SVGID_00000136370434384869445600000013546026705147063441_" x="1" y="-0.5" width="300" height="301.1"/>
		</defs>
		<clipPath id="SVGID_00000002359848929165183120000017002739479673453708_">
			<use xlink:href="#SVGID_00000136370434384869445600000013546026705147063441_"  style="overflow:visible;"/>
		</clipPath>
		<g style="clip-path:url(#SVGID_00000002359848929165183120000017002739479673453708_);">
			<text transform="matrix(1 0 0 1 642.111 28.911)" style="font-family:'ArialMT'; font-size:14.114px;">ogon</text>
		</g>
	</g>
</g>
<g>
	<g>
		<defs>
			<rect id="SVGID_00000109734058842005861770000001559047835370821807_" x="1" y="-0.5" width="300" height="301.1"/>
		</defs>
		<clipPath id="SVGID_00000141443562238593947370000004196793156080882344_">
			<use xlink:href="#SVGID_00000109734058842005861770000001559047835370821807_"  style="overflow:visible;"/>
		</clipPath>
		<g style="clip-path:url(#SVGID_00000141443562238593947370000004196793156080882344_);">
			<text transform="matrix(1 0 0 1 675.237 28.911)" style="font-family:'ArialMT'; font-size:14.114px;">ja</text>
		</g>
	</g>
</g>
<g>
	<g>
		<defs>
			<rect id="SVGID_00000132804124847333479260000008110073027409168808_" x="1" y="-0.5" width="300" height="301.1"/>
		</defs>
		<clipPath id="SVGID_00000005226614944796532720000007783863868286609069_">
			<use xlink:href="#SVGID_00000132804124847333479260000008110073027409168808_"  style="overflow:visible;"/>
		</clipPath>
		<g style="clip-path:url(#SVGID_00000005226614944796532720000007783863868286609069_);">
			<text transform="matrix(1 0 0 1 687.81 28.911)" style="font-family:'ArialMT'; font-size:14.114px;">muiden</text>
		</g>
	</g>
</g>
<g>
	<g>
		<defs>
			<rect id="SVGID_00000137090263128344932710000017399138210921466804_" x="1" y="-0.5" width="300" height="301.1"/>
		</defs>
		<clipPath id="SVGID_00000059296347966412883310000004408460426646911880_">
			<use xlink:href="#SVGID_00000137090263128344932710000017399138210921466804_"  style="overflow:visible;"/>
		</clipPath>
		<g style="clip-path:url(#SVGID_00000059296347966412883310000004408460426646911880_);">
			<text transform="matrix(1 0 0 1 566.644 48.909)" style="font-family:'ArialMT'; font-size:14.114px;">Alk</text>
		</g>
	</g>
</g>
<g>
	<g>
		<defs>
			<rect id="SVGID_00000167391824038034294050000011487675808501038783_" x="1" y="-0.5" width="300" height="301.1"/>
		</defs>
		<clipPath id="SVGID_00000015335809892239647060000011859593743225880758_">
			<use xlink:href="#SVGID_00000167391824038034294050000011487675808501038783_"  style="overflow:visible;"/>
		</clipPath>
		<g style="clip-path:url(#SVGID_00000015335809892239647060000011859593743225880758_);">
			<text transform="matrix(1 0 0 1 586.192 48.909)" style="font-family:'ArialMT'; font-size:14.114px;">o</text>
		</g>
	</g>
</g>
<g>
	<g>
		<defs>
			<rect id="SVGID_00000098222278844116994260000011131223373934126486_" x="1" y="-0.5" width="300" height="301.1"/>
		</defs>
		<clipPath id="SVGID_00000094618505276574474190000006813932392575615626_">
			<use xlink:href="#SVGID_00000098222278844116994260000011131223373934126486_"  style="overflow:visible;"/>
		</clipPath>
		<g style="clip-path:url(#SVGID_00000094618505276574474190000006813932392575615626_);">
			<text transform="matrix(1 0 0 1 594.293 48.909)" style="font-family:'ArialMT'; font-size:14.114px;">-ilmeen perus-</text>
		</g>
	</g>
</g>
<g>
	<g>
		<defs>
			<rect id="SVGID_00000154409095358043717070000017751649883937160883_" x="1" y="-0.5" width="300" height="301.1"/>
		</defs>
		<clipPath id="SVGID_00000168816425236775554230000008879273844467464100_">
			<use xlink:href="#SVGID_00000154409095358043717070000017751649883937160883_"  style="overflow:visible;"/>
		</clipPath>
		<g style="clip-path:url(#SVGID_00000168816425236775554230000008879273844467464100_);">
			<text transform="matrix(1 0 0 1 566.644 68.907)" style="font-family:'ArialMT'; font-size:14.114px;">elementtien</text>
		</g>
	</g>
</g>
<g>
	<g>
		<defs>
			<rect id="SVGID_00000134928475055460582880000004391516691745934239_" x="1" y="-0.5" width="300" height="301.1"/>
		</defs>
		<clipPath id="SVGID_00000081624108299300180930000008858020783583643783_">
			<use xlink:href="#SVGID_00000134928475055460582880000004391516691745934239_"  style="overflow:visible;"/>
		</clipPath>
		<g style="clip-path:url(#SVGID_00000081624108299300180930000008858020783583643783_);">
			<text transform="matrix(1 0 0 1 641.138 68.907)" style="font-family:'ArialMT'; font-size:14.114px;">käytöstä.</text>
		</g>
	</g>
</g>
<g>
	<g>
		<defs>
			<rect id="SVGID_00000025425524430550243090000007755243608495343235_" x="1" y="-0.5" width="300" height="301.1"/>
		</defs>
		<clipPath id="SVGID_00000108295269018967700230000000648620279892295842_">
			<use xlink:href="#SVGID_00000025425524430550243090000007755243608495343235_"  style="overflow:visible;"/>
		</clipPath>
		<g style="clip-path:url(#SVGID_00000108295269018967700230000000648620279892295842_);">
			<text transform="matrix(1 0 0 1 694.726 68.907)" style="font-family:'ArialMT'; font-size:14.114px;">Niiden</text>
		</g>
	</g>
</g>
<g>
	<g>
		<defs>
			<rect id="SVGID_00000139251736195350725530000005083531726415322783_" x="1" y="-0.5" width="300" height="301.1"/>
		</defs>
		<clipPath id="SVGID_00000085226068754993592010000014771764855909498526_">
			<use xlink:href="#SVGID_00000139251736195350725530000005083531726415322783_"  style="overflow:visible;"/>
		</clipPath>
		<g style="clip-path:url(#SVGID_00000085226068754993592010000014771764855909498526_);">
			<text transform="matrix(1 0 0 1 566.644 88.907)" style="font-family:'ArialMT'; font-size:14.114px;">noudattaminen on tärk</text>
		</g>
	</g>
</g>
<g>
	<g>
		<defs>
			<rect id="SVGID_00000085956555570302726000000018003607620765567395_" x="1" y="-0.5" width="300" height="301.1"/>
		</defs>
		<clipPath id="SVGID_00000105414373514263659550000007486751929703502252_">
			<use xlink:href="#SVGID_00000085956555570302726000000018003607620765567395_"  style="overflow:visible;"/>
		</clipPath>
		<g style="clip-path:url(#SVGID_00000105414373514263659550000007486751929703502252_);">
			<text transform="matrix(1 0 0 1 704.548 88.907)" style="font-family:'ArialMT'; font-size:14.114px;">eätä,</text>
		</g>
	</g>
</g>
<g>
	<g>
		<defs>
			<rect id="SVGID_00000097467727308496310860000005245152236822442174_" x="1" y="-0.5" width="300" height="301.1"/>
		</defs>
		<clipPath id="SVGID_00000095296498328004664650000010144755615256413314_">
			<use xlink:href="#SVGID_00000097467727308496310860000005245152236822442174_"  style="overflow:visible;"/>
		</clipPath>
		<g style="clip-path:url(#SVGID_00000095296498328004664650000010144755615256413314_);">
			<text transform="matrix(1 0 0 1 566.644 108.908)" style="font-family:'ArialMT'; font-size:14.114px;">jotta Alk</text>
		</g>
	</g>
</g>
<g>
	<g>
		<defs>
			<rect id="SVGID_00000063629279890490706740000004984594226694045373_" x="1" y="-0.5" width="300" height="301.1"/>
		</defs>
		<clipPath id="SVGID_00000142884721564931755980000012855105915006270902_">
			<use xlink:href="#SVGID_00000063629279890490706740000004984594226694045373_"  style="overflow:visible;"/>
		</clipPath>
		<g style="clip-path:url(#SVGID_00000142884721564931755980000012855105915006270902_);">
			<text transform="matrix(1 0 0 1 616.623 108.908)" style="font-family:'ArialMT'; font-size:14.114px;">o esiinty</text>
		</g>
	</g>
</g>
<g>
	<g>
		<defs>
			<rect id="SVGID_00000149370948312097822950000014880876001555783829_" x="1" y="-0.5" width="300" height="301.1"/>
		</defs>
		<clipPath id="SVGID_00000101823047862849190260000014730658637512150414_">
			<use xlink:href="#SVGID_00000149370948312097822950000014880876001555783829_"  style="overflow:visible;"/>
		</clipPath>
		<g style="clip-path:url(#SVGID_00000101823047862849190260000014730658637512150414_);">
			<text transform="matrix(1 0 0 1 667.332 108.908)" style="font-family:'ArialMT'; font-size:14.114px;">y aina</text>
		</g>
	</g>
</g>
<g>
	<g>
		<defs>
			<rect id="SVGID_00000130605326896818739810000017814151870907051145_" x="1" y="-0.5" width="300" height="301.1"/>
		</defs>
		<clipPath id="SVGID_00000004504144575844532560000018411205900031534208_">
			<use xlink:href="#SVGID_00000130605326896818739810000017814151870907051145_"  style="overflow:visible;"/>
		</clipPath>
		<g style="clip-path:url(#SVGID_00000004504144575844532560000018411205900031534208_);">
			<text transform="matrix(1 0 0 1 566.644 128.906)" style="font-family:'ArialMT'; font-size:14.114px;">visuaalisesti edusta</text>
		</g>
	</g>
</g>
<g>
	<g>
		<defs>
			<rect id="SVGID_00000057133271779454546810000015349549112081835911_" x="1" y="-0.5" width="300" height="301.1"/>
		</defs>
		<clipPath id="SVGID_00000077286722993641831230000001715772062336750254_">
			<use xlink:href="#SVGID_00000057133271779454546810000015349549112081835911_"  style="overflow:visible;"/>
		</clipPath>
		<g style="clip-path:url(#SVGID_00000077286722993641831230000001715772062336750254_);">
			<text transform="matrix(1 0 0 1 684.322 128.906)" style="font-family:'ArialMT'; font-size:14.114px;">vasti ja</text>
		</g>
	</g>
</g>
<g>
	<g>
		<defs>
			<rect id="SVGID_00000063632013219355713250000007340874685715008386_" x="1" y="-0.5" width="300" height="301.1"/>
		</defs>
		<clipPath id="SVGID_00000065064844595727009870000001184227464232696240_">
			<use xlink:href="#SVGID_00000063632013219355713250000007340874685715008386_"  style="overflow:visible;"/>
		</clipPath>
		<g style="clip-path:url(#SVGID_00000065064844595727009870000001184227464232696240_);">
			<text transform="matrix(1 0 0 1 566.644 148.904)" style="font-family:'ArialMT'; font-size:14.114px;">johdonmukaisesti.</text>
		</g>
	</g>
</g>
<g>
	<g>
		<defs>
			<rect id="SVGID_00000144331870966816536460000016588935061385378990_" x="1" y="-0.5" width="300" height="301.1"/>
		</defs>
		<clipPath id="SVGID_00000093155510444052862660000009529058515534455440_">
			<use xlink:href="#SVGID_00000144331870966816536460000016588935061385378990_"  style="overflow:visible;"/>
		</clipPath>
		<g style="clip-path:url(#SVGID_00000093155510444052862660000009529058515534455440_);">
			<text transform="matrix(1 0 0 1 566.644 188.89)" style="font-family:'ArialMT'; font-size:14.114px;">Jos tämä ohjeisto ei anna</text>
		</g>
	</g>
</g>
<g>
	<g>
		<defs>
			<rect id="SVGID_00000100356050359052085540000000691300612034690995_" x="1" y="-0.5" width="300" height="301.1"/>
		</defs>
		<clipPath id="SVGID_00000043421662311587911240000016928261201042335901_">
			<use xlink:href="#SVGID_00000100356050359052085540000000691300612034690995_"  style="overflow:visible;"/>
		</clipPath>
		<g style="clip-path:url(#SVGID_00000043421662311587911240000016928261201042335901_);">
			<text transform="matrix(1 0 0 1 566.644 208.888)" style="font-family:'ArialMT'; font-size:14.114px;">vastausta ilmettä k</text>
		</g>
	</g>
</g>
<g>
	<g>
		<defs>
			<rect id="SVGID_00000137818369850200883430000015928781891416835489_" x="1" y="-0.5" width="300" height="301.1"/>
		</defs>
		<clipPath id="SVGID_00000123410622117152598270000008186103173317374636_">
			<use xlink:href="#SVGID_00000137818369850200883430000015928781891416835489_"  style="overflow:visible;"/>
		</clipPath>
		<g style="clip-path:url(#SVGID_00000123410622117152598270000008186103173317374636_);">
			<text transform="matrix(1 0 0 1 678.046 208.888)" style="font-family:'ArialMT'; font-size:14.114px;">os</text>
		</g>
	</g>
</g>
<g>
	<g>
		<defs>
			<rect id="SVGID_00000000908479601831772900000018142771042555406740_" x="1" y="-0.5" width="300" height="301.1"/>
		</defs>
		<clipPath id="SVGID_00000168105479836895584470000005133032810909831808_">
			<use xlink:href="#SVGID_00000000908479601831772900000018142771042555406740_"  style="overflow:visible;"/>
		</clipPath>
		<g style="clip-path:url(#SVGID_00000168105479836895584470000005133032810909831808_);">
			<text transform="matrix(1 0 0 1 692.085 208.888)" style="font-family:'ArialMT'; font-size:14.114px;">ke</text>
		</g>
	</g>
</g>
<g>
	<g>
		<defs>
			<rect id="SVGID_00000147921659846319747030000005626969486290332836_" x="1" y="-0.5" width="300" height="301.1"/>
		</defs>
		<clipPath id="SVGID_00000136403247894998201370000007656445804236263857_">
			<use xlink:href="#SVGID_00000147921659846319747030000005626969486290332836_"  style="overflow:visible;"/>
		</clipPath>
		<g style="clip-path:url(#SVGID_00000136403247894998201370000007656445804236263857_);">
			<text transform="matrix(1 0 0 1 705.721 208.888)" style="font-family:'ArialMT'; font-size:14.114px;">vaan</text>
		</g>
	</g>
</g>
<g>
	<g>
		<defs>
			<rect id="SVGID_00000178163245114482061660000008354489668132176528_" x="1" y="-0.5" width="300" height="301.1"/>
		</defs>
		<clipPath id="SVGID_00000049916449744338475410000005211006087892592536_">
			<use xlink:href="#SVGID_00000178163245114482061660000008354489668132176528_"  style="overflow:visible;"/>
		</clipPath>
		<g style="clip-path:url(#SVGID_00000049916449744338475410000005211006087892592536_);">
			<text transform="matrix(1 0 0 1 566.644 228.886)" style="font-family:'ArialMT'; font-size:14.114px;">ky</text>
		</g>
	</g>
</g>
<g>
	<g>
		<defs>
			<rect id="SVGID_00000064320896104344046800000006205801885730397066_" x="1" y="-0.5" width="300" height="301.1"/>
		</defs>
		<clipPath id="SVGID_00000161622225971241868280000003923664525975870609_">
			<use xlink:href="#SVGID_00000064320896104344046800000006205801885730397066_"  style="overflow:visible;"/>
		</clipPath>
		<g style="clip-path:url(#SVGID_00000161622225971241868280000003923664525975870609_);">
			<text transform="matrix(1 0 0 1 579.884 228.886)" style="font-family:'ArialMT'; font-size:14.114px;">sym</text>
		</g>
	</g>
</g>
<g>
	<g>
		<defs>
			<rect id="SVGID_00000036931886290785029670000012295331960514950832_" x="1" y="-0.5" width="300" height="301.1"/>
		</defs>
		<clipPath id="SVGID_00000122685587298455411790000005382593308143656870_">
			<use xlink:href="#SVGID_00000036931886290785029670000012295331960514950832_"  style="overflow:visible;"/>
		</clipPath>
		<g style="clip-path:url(#SVGID_00000122685587298455411790000005382593308143656870_);">
			<text transform="matrix(1 0 0 1 604.962 228.886)" style="font-family:'ArialMT'; font-size:14.114px;">ykseesi, ota yhteyttä:</text>
		</g>
	</g>
</g>
<g>
	<g>
		<defs>
			<rect id="SVGID_00000137096940073322512830000013019404565608280977_" x="1" y="-0.5" width="300" height="301.1"/>
		</defs>
		<clipPath id="SVGID_00000055700354422092713280000016423173379817089683_">
			<use xlink:href="#SVGID_00000137096940073322512830000013019404565608280977_"  style="overflow:visible;"/>
		</clipPath>
		<g style="clip-path:url(#SVGID_00000055700354422092713280000016423173379817089683_);">
			<text transform="matrix(1 0 0 1 566.644 248.888)" style="font-family:'ArialMT'; font-size:14.114px;">Petteri Järvelin</text>
		</g>
	</g>
</g>
<g>
	<g>
		<defs>
			<rect id="SVGID_00000152981349118547383500000007094783519066762921_" x="1" y="-0.5" width="300" height="301.1"/>
		</defs>
		<clipPath id="SVGID_00000113329213077350473140000006665032300959251647_">
			<use xlink:href="#SVGID_00000152981349118547383500000007094783519066762921_"  style="overflow:visible;"/>
		</clipPath>
		<g style="clip-path:url(#SVGID_00000113329213077350473140000006665032300959251647_);">
			<text transform="matrix(1 0 0 1 566.644 268.885)" style="font-family:'ArialMT'; font-size:14.114px;">puh. 050 3100 690 tai</text>
		</g>
	</g>
</g>
<g>
	<g>
		<defs>
			<rect id="SVGID_00000110464215000629326320000015352499483357809048_" x="1" y="-0.5" width="300" height="301.1"/>
		</defs>
		<clipPath id="SVGID_00000023267081414893798650000014394876383734472854_">
			<use xlink:href="#SVGID_00000110464215000629326320000015352499483357809048_"  style="overflow:visible;"/>
		</clipPath>
		<g style="clip-path:url(#SVGID_00000023267081414893798650000014394876383734472854_);">
			<text transform="matrix(1 0 0 1 566.644 288.883)" style="font-family:'ArialMT'; font-size:14.114px;">petteri.jarvelin@sekgrey.fi</text>
		</g>
	</g>
</g>
<g>
	<g>
		<defs>
			<rect id="SVGID_00000152950038241770007100000003879558559708438938_" x="1" y="-0.5" width="300" height="301.1"/>
		</defs>
		<clipPath id="SVGID_00000073721794259552936360000009059215885343773605_">
			<use xlink:href="#SVGID_00000152950038241770007100000003879558559708438938_"  style="overflow:visible;"/>
		</clipPath>
		<path style="clip-path:url(#SVGID_00000073721794259552936360000009059215885343773605_);fill:#E3333C;" d="M254.4,153.2
			c-6.3,17.2-12.1,26.1-17.7,27.2c-1.4,0.3-2-0.3-2.3-0.8c-0.7-1.1-1-3.4-0.7-6.8c0.4-4.8,2-11.8,5.3-20.7
			c6-16.2,13.3-25.5,17.5-26.3h0.1c1.7-0.3,2.3,0.3,2.6,0.8C260,127.6,261.9,133,254.4,153.2 M268.5,121c-4.4-3.6-10.3-4.7-17-3.2
			h-0.1c-14,3.1-30.8,19-34.5,42.4c-0.5,3-0.6,5.8-0.5,8.5c0,0.7,0.1,1.3,0.2,2c-4.4,5.7-9.3,9.9-10.4,10.6c-5.5,3.7-8-3.9-10.7-10
			l-5.4-13c17.3-14.7,31.7-27,31.7-27c1.8-1.6,2-4.3,0.5-6.1c-1.6-1.8-4.3-2.1-6.1-0.5l-29.6,25.1l27-64.1c1.8-4.3-0.2-9.3-4.5-11.2
			c-4.3-1.8-9.3,0.2-11.2,4.5l-40.1,95.1l-11.7,9.9c-4.7,3.8-9.2,6.9-10.8,6c-2.5-1.4-1.1-4.4,0.1-7.1l37.8-89.6
			c1.8-4.3-0.2-9.3-4.5-11.2c-4.3-1.8-9.3,0.2-11.1,4.5l-44.3,105.1c-0.8,1.8-1.2,3.4-1.2,5.4c0,4.3,2.1,8.2,5.2,10.4
			c1.9,1.4,4.1,2.2,6.3,2.2c1.9,0,5.4-0.1,8.4-2.3c0.7-0.5,8.1-6.8,18.5-15.5c-1.3,4.2,0.7,8.7,4.8,10.4c4.3,1.8,9.3-0.2,11.2-4.5
			l10.3-24.5l5.3,13c2.5,5.9,6.5,10.8,15.6,9.1c7.6-1.5,15.9-9.8,21.5-16.7c1.2,2.4,2.7,4.5,4.7,6.1c3.1,2.5,8.7,5.2,17.9,3.1
			c13.6-3,30-17.5,33.9-42C277.2,135.2,274.7,126,268.5,121 M73.7,168.5l33.1-37.7l-14.3,34C92.5,164.8,73.7,168.5,73.7,168.5z
			 M151,283.7c-50.6,0-94.6-28.3-117.2-69.9l30.4-34.5l24.2-4.7l-13.5,32c-1.8,4.3,0.2,9.3,4.5,11.2c4.3,1.8,9.3-0.2,11.2-4.5
			L138,100.7c1.8-4.3-0.2-9.3-4.5-11.2c-2.7-1.1-5.7-0.8-8,0.7c-0.6,0.3-1.1,0.8-1.6,1.3l-71.3,81.1l-19.1,3.8
			c-2.4,0.5-3.9,2.8-3.4,5.1c0.5,2.4,2.8,3.9,5.1,3.4l7.9-1.6L27.7,201c-6.4-15.6-9.9-32.6-9.9-50.4C17.8,77,77.6,17.3,151,17.3
			c73.5,0,133.2,59.8,133.2,133.2C284.3,224,224.5,283.7,151,283.7 M151,0.6C68.4,0.6,1.1,67.9,1.1,150.5S68.3,300.4,151,300.4
			c82.6,0,149.9-67.2,149.9-149.9C300.9,67.9,233.7,0.6,151,0.6"/>
	</g>
</g>
<g class="st50">
	<path class="st51" d="M92.3,245.3c0.8,6.4-3.7,11.6-11.1,13c-4.2,0.8-7.6,0.3-10.3-1.4c-0.9-0.5-1.5-1.4-1.7-2.4
		c-0.1-0.4-0.1-0.7,0-1.2c0.2-1.3,1.1-2,2.2-2.1c0.7-0.1,1.5,0,2,0.4c1.5,1.2,3.7,2.8,7.1,2.2c1.5-0.3,6.4-1.4,5.6-6.1
		c0-0.1,0-0.2,0-0.2c-0.7-3.6-3.9-4.7-9.6-6.5c-5.2-1.7-9.8-3.8-10.8-9.2c0-0.2-0.1-0.4-0.1-0.6c-0.9-7.2,5.1-11,10.6-12.1
		c4.3-0.8,7.6-0.2,9.7,1.2c0.8,0.5,1.3,1.2,1.5,2c0.1,0.4,0.1,0.9-0.1,1.4c-0.3,1-1,1.6-1.9,1.8c-0.7,0.1-1.4,0-2.1-0.5
		c-1.6-1.2-3.4-2-6.6-1.4c-3.4,0.6-5.6,2.8-5,5.7c0,0.1,0.1,0.3,0.1,0.4c0.7,2.6,3.4,3.5,9.2,5.5c5.6,1.9,10.1,4,11.2,9.5
		C92.2,244.9,92.2,245.1,92.3,245.3z"/>
	<path class="st51" d="M95.6,219.8c-2,0.4-4-1-4.4-3c-0.4-2.1,1-4.1,3-4.4c2.1-0.4,4,1,4.4,3.1C99,217.4,97.7,219.4,95.6,219.8z
		 M104.5,251.3c0.2,1.2-0.4,2.1-1.7,2.3l-1.8,0.3c-1.2,0.2-2.1-0.4-2.3-1.6l-4.8-25.9c-0.2-1.2,0.4-2.1,1.6-2.3l1.8-0.3
		c1.2-0.2,2.2,0.4,2.4,1.6L104.5,251.3z"/>
	<path class="st51" d="M143,244.1c0.2,1.2-0.4,2.1-1.6,2.3l-1.8,0.3c-1.2,0.2-2.1-0.4-2.3-1.6l-3.2-17.4c-0.1-0.3-0.2-0.4-0.4-0.3
		c-0.1,0-0.3,0.2-0.3,0.3l-4.6,19.3c-0.3,1.1-0.8,2.2-2.4,2.5c-1.6,0.3-2.5-0.6-3.1-1.5l-11.2-16.4c-0.1-0.2-0.2-0.2-0.3-0.2
		c-0.2,0-0.3,0.2-0.2,0.4l3.2,17.4c0.2,1.2-0.4,2.1-1.7,2.3l-0.7,0.1c-1.2,0.2-2.1-0.4-2.3-1.6l-4.6-24.7c-0.4-2.2,0.8-4.2,2.9-4.5
		c1.2-0.2,3,0,4.7,2.4l12,17.5c0.1,0.1,0.3,0.2,0.4,0.2c0.2,0,0.3-0.1,0.3-0.3l4.9-20.7c0.5-2.2,1.8-3.6,3.5-3.9
		c2.1-0.4,3.9,1,4.3,3.2L143,244.1z"/>
	<path class="st51" d="M145.6,210.5c-2,0.4-4-1-4.4-3c-0.4-2.1,1-4.1,3-4.4c2.1-0.4,4,1,4.4,3.1C149,208.1,147.6,210.1,145.6,210.5z
		 M154.4,242c0.2,1.2-0.4,2.1-1.7,2.3l-1.8,0.3c-1.2,0.2-2.1-0.4-2.3-1.6l-4.8-25.9c-0.2-1.2,0.4-2.1,1.6-2.3l1.8-0.3
		c1.2-0.2,2.2,0.4,2.4,1.6L154.4,242z"/>
	<path class="st51" d="M165.8,239.9c0.2,1.2-0.4,2.1-1.6,2.3l-1.8,0.3c-1.2,0.2-2.1-0.4-2.3-1.6l-7.8-41.8c-0.2-1.2,0.4-2.1,1.6-2.3
		l1.8-0.3c1.2-0.2,2.1,0.4,2.3,1.6L165.8,239.9z"/>
	<path class="st51" d="M198.3,235.1c-0.3,0.5-0.8,0.9-1.4,1l-2.2,0.4c-1.1,0.2-1.9-0.2-2.5-1.2l-2.9-4.4c-0.3-0.4-0.6-0.6-1.1-0.5
		l-11.7,2.2c-0.6,0.1-0.8,0.3-0.9,0.9l-1.2,5.3c-0.3,1.1-0.8,1.7-2,1.9l-0.6,0.1c-0.8,0.2-1.3-0.2-1.5-0.4c-0.2-0.2-0.4-0.5-0.4-0.8
		c-0.1-0.3,0-0.6,0.1-0.9c6.3-27.8,6.4-27.8,6.4-27.8c0.4-1.6,1.3-2.6,2.6-2.8c0.9-0.2,2.2,0,3.3,1.7c16,23.7,16,23.8,16,23.8
		c0.2,0.3,0.3,0.5,0.3,0.8C198.5,234.6,198.4,234.9,198.3,235.1z M185.9,225.9l-5.8-8.9c-0.2-0.3-0.4-0.3-0.5-0.3
		c-0.2,0-0.4,0.2-0.4,0.5l-2.2,10.4c-0.1,0.1-0.1,0.3,0,0.4c0.1,0.3,0.3,0.4,0.6,0.3l8.1-1.5c0.3-0.1,0.5-0.3,0.5-0.6
		C186.1,226.2,186,226,185.9,225.9z"/>
	<path class="st51" d="M225.7,230c-0.2,0.7-0.9,1-1.5,1.1l-2.5,0.5c-1.1,0.2-1.7,0.1-2.8-0.8l-11.8-10.1c-0.5-0.4-0.8-0.9-0.9-1.5
		c-0.1-0.3,0-0.6,0.1-0.9c0.2-0.9,1.1-1.4,2-1.6l0.6-0.1c4.9-0.9,5.4-3.4,5.1-5.5c-0.4-2.1-1.8-4.1-6.7-3.2l-3.2,0.6
		c-0.7,0.1-1.1,0.6-1,1.3l4.2,22.4c0.2,1.2-0.4,2.1-1.6,2.3l-1.8,0.3c-1.2,0.2-2.1-0.4-2.3-1.6l-4.5-24c-0.5-2.6,0.5-4.1,3.1-4.6
		l6.9-1.3c9.6-1.8,12.6,2.5,13.3,6.4c0.4,2.1-0.1,4-1.2,5.6c-1.3,1.9-3.4,3.1-5.2,3.7c10.9,9,10.9,9,10.9,9c0.5,0.4,0.8,0.8,0.9,1.3
		C225.8,229.6,225.7,229.7,225.7,230z"/>
</g>
</svg>
